<?xml version="1.0" encoding="UTF-8" standalone="no"?>
<svg
   xmlns:dc="http://purl.org/dc/elements/1.1/"
   xmlns:cc="http://creativecommons.org/ns#"
   xmlns:rdf="http://www.w3.org/1999/02/22-rdf-syntax-ns#"
   xmlns:svg="http://www.w3.org/2000/svg"
   xmlns="http://www.w3.org/2000/svg"
   viewBox="0 0 550.68628 115.05125"
   height="115.05125"
   width="550.68628"
   xml:space="preserve"
   version="1.1"
   id="svg6856"><metadata
     id="metadata6862"><rdf:RDF><cc:Work
         rdf:about=""><dc:format>image/svg+xml</dc:format><dc:type
           rdf:resource="http://purl.org/dc/dcmitype/StillImage" /><dc:title></dc:title></cc:Work></rdf:RDF></metadata><defs
     id="defs6860" /><g
     transform="matrix(1.25,0,0,-1.25,0,115.05125)"
     id="g6864"><g
       transform="translate(8.907,28.709)"
       id="g6866"><g
         id="g6868"><g
           id="g6870"><g
             id="g6872"><path
               id="path6874"
               style="fill:none;stroke:#000000;stroke-width:0.3985;stroke-linecap:butt;stroke-linejoin:miter;stroke-miterlimit:10;stroke-dasharray:none;stroke-opacity:1"
               d="m 8.70769,27.21297 c 0,4.80917 -3.89852,8.70768 -8.70769,8.70768 -4.80917,0 -8.70769,-3.89851 -8.70769,-8.70768 0,-4.80917 3.89852,-8.70771 8.70769,-8.70771 4.80917,0 8.70769,3.89854 8.70769,8.70771 z" /><g
               transform="translate(-2.491,24.002)"
               id="g6876"><g
                 id="g6878"><g
                   transform="translate(-6.416,-52.711)"
                   id="g6880"><text
                     id="text6882"
                     style="font-variant:normal;font-weight:normal;font-size:9.96259975px;font-family:CMR10;-inkscape-font-specification:CMR10;writing-mode:lr-tb;fill:#000000;fill-opacity:1;fill-rule:nonzero;stroke:none"
                     transform="matrix(1,0,0,-1,6.416,52.711)"><tspan
                       id="tspan6884"
                       y="0"
                       x="0">0</tspan></text>
<g
                     transform="translate(6.416,52.711)"
                     id="g6886" /></g></g><g
                 transform="translate(2.491,-24.002)"
                 id="g6888" /></g></g><g
             id="g6890"><path
               id="path6892"
               style="fill:none;stroke:#000000;stroke-width:0.3985;stroke-linecap:butt;stroke-linejoin:miter;stroke-miterlimit:10;stroke-dasharray:none;stroke-opacity:1"
               d="m 47.98505,54.42593 c 0,4.80917 -3.89852,8.70769 -8.70769,8.70769 -4.80917,0 -8.70769,-3.89852 -8.70769,-8.70769 0,-4.80917 3.89852,-8.70768 8.70769,-8.70768 4.80917,0 8.70769,3.89851 8.70769,8.70768 z" /><g
               transform="translate(36.786,51.215)"
               id="g6894"><g
                 id="g6896"><g
                   transform="translate(-45.693,-79.924)"
                   id="g6898"><text
                     id="text6900"
                     style="font-variant:normal;font-weight:normal;font-size:9.96259975px;font-family:CMR10;-inkscape-font-specification:CMR10;writing-mode:lr-tb;fill:#000000;fill-opacity:1;fill-rule:nonzero;stroke:none"
                     transform="matrix(1,0,0,-1,45.693,79.924)"><tspan
                       id="tspan6902"
                       y="0"
                       x="0">1</tspan></text>
<g
                     transform="translate(45.693,79.924)"
                     id="g6904" /></g></g><g
                 transform="translate(-36.786,-51.215)"
                 id="g6906" /></g></g><g
             id="g6908"><path
               id="path6910"
               style="fill:none;stroke:#000000;stroke-width:0.3985;stroke-linecap:butt;stroke-linejoin:miter;stroke-miterlimit:10;stroke-dasharray:none;stroke-opacity:1"
               d="m 47.98505,0 c 0,4.80917 -3.89852,8.70769 -8.70769,8.70769 -4.80917,0 -8.70769,-3.89852 -8.70769,-8.70769 0,-4.80917 3.89852,-8.70769 8.70769,-8.70769 4.80917,0 8.70769,3.89852 8.70769,8.70769 z" /><g
               transform="translate(36.786,-3.211)"
               id="g6912"><g
                 id="g6914"><g
                   transform="translate(-45.693,-25.498)"
                   id="g6916"><text
                     id="text6918"
                     style="font-variant:normal;font-weight:normal;font-size:9.96259975px;font-family:CMR10;-inkscape-font-specification:CMR10;writing-mode:lr-tb;fill:#000000;fill-opacity:1;fill-rule:nonzero;stroke:none"
                     transform="matrix(1,0,0,-1,45.693,25.498)"><tspan
                       id="tspan6920"
                       y="0"
                       x="0">2</tspan></text>
<g
                     transform="translate(45.693,25.498)"
                     id="g6922" /></g></g><g
                 transform="translate(-36.786,3.211)"
                 id="g6924" /></g></g><g
             id="g6926"><path
               id="path6928"
               style="fill:none;stroke:#000000;stroke-width:0.3985;stroke-linecap:butt;stroke-linejoin:miter;stroke-miterlimit:10;stroke-dasharray:none;stroke-opacity:1"
               d="m 138.69518,54.42593 c 0,4.80917 -3.89852,8.70769 -8.70769,8.70769 -4.80918,0 -8.70769,-3.89852 -8.70769,-8.70769 0,-4.80917 3.89851,-8.70768 8.70769,-8.70768 4.80917,0 8.70769,3.89851 8.70769,8.70768 z" /><g
               transform="translate(127.495,51.215)"
               id="g6930"><g
                 id="g6932"><g
                   transform="translate(-136.402,-79.924)"
                   id="g6934"><text
                     id="text6936"
                     style="font-variant:normal;font-weight:normal;font-size:9.96259975px;font-family:CMR10;-inkscape-font-specification:CMR10;writing-mode:lr-tb;fill:#000000;fill-opacity:1;fill-rule:nonzero;stroke:none"
                     transform="matrix(1,0,0,-1,136.402,79.924)"><tspan
                       id="tspan6938"
                       y="0"
                       x="0">3</tspan></text>
<g
                     transform="translate(136.402,79.924)"
                     id="g6940" /></g></g><g
                 transform="translate(-127.495,-51.215)"
                 id="g6942" /></g></g><g
             id="g6944"><path
               id="path6946"
               style="fill:none;stroke:#000000;stroke-width:0.3985;stroke-linecap:butt;stroke-linejoin:miter;stroke-miterlimit:10;stroke-dasharray:none;stroke-opacity:1"
               d="m 138.69518,0 c 0,4.80917 -3.89852,8.70769 -8.70769,8.70769 -4.80918,0 -8.70769,-3.89852 -8.70769,-8.70769 0,-4.80917 3.89851,-8.70769 8.70769,-8.70769 4.80917,0 8.70769,3.89852 8.70769,8.70769 z" /><g
               transform="translate(127.495,-3.211)"
               id="g6948"><g
                 id="g6950"><g
                   transform="translate(-136.402,-25.498)"
                   id="g6952"><text
                     id="text6954"
                     style="font-variant:normal;font-weight:normal;font-size:9.96259975px;font-family:CMR10;-inkscape-font-specification:CMR10;writing-mode:lr-tb;fill:#000000;fill-opacity:1;fill-rule:nonzero;stroke:none"
                     transform="matrix(1,0,0,-1,136.402,25.498)"><tspan
                       id="tspan6956"
                       y="0"
                       x="0">4</tspan></text>
<g
                     transform="translate(136.402,25.498)"
                     id="g6958" /></g></g><g
                 transform="translate(-127.495,3.211)"
                 id="g6960" /></g></g><g
             id="g6962"><path
               id="path6964"
               style="fill:none;stroke:#000000;stroke-width:0.3985;stroke-linecap:butt;stroke-linejoin:miter;stroke-miterlimit:10;stroke-dasharray:none;stroke-opacity:1"
               d="m 180.64874,-19.80199 c 0,4.80918 -3.89851,8.70771 -8.70768,8.70771 -4.80918,0 -8.70769,-3.89853 -8.70769,-8.70771 0,-4.80917 3.89851,-8.70768 8.70769,-8.70768 4.80917,0 8.70768,3.89851 8.70768,8.70768 z" /><g
               transform="translate(169.448,-23.012)"
               id="g6966"><g
                 id="g6968"><g
                   transform="translate(-178.355,-5.697)"
                   id="g6970"><text
                     id="text6972"
                     style="font-variant:normal;font-weight:normal;font-size:9.96259975px;font-family:CMR10;-inkscape-font-specification:CMR10;writing-mode:lr-tb;fill:#000000;fill-opacity:1;fill-rule:nonzero;stroke:none"
                     transform="matrix(1,0,0,-1,178.355,5.697)"><tspan
                       id="tspan6974"
                       y="0"
                       x="0">5</tspan></text>
<g
                     transform="translate(178.355,5.697)"
                     id="g6976" /></g></g><g
                 transform="translate(-169.448,23.012)"
                 id="g6978" /></g></g><g
             id="g6980"><path
               id="path6982"
               style="fill:none;stroke:#000000;stroke-width:0.3985;stroke-linecap:butt;stroke-linejoin:miter;stroke-miterlimit:10;stroke-dasharray:none;stroke-opacity:1"
               d="m 200.65042,27.21297 c 0,4.80917 -3.89852,8.70768 -8.7077,8.70768 -4.80918,0 -8.70769,-3.89851 -8.70769,-8.70768 0,-4.80917 3.89851,-8.70771 8.70769,-8.70771 4.80918,0 8.7077,3.89854 8.7077,8.70771 z" /><g
               transform="translate(189.449,24.002)"
               id="g6984"><g
                 id="g6986"><g
                   transform="translate(-198.356,-52.711)"
                   id="g6988"><text
                     id="text6990"
                     style="font-variant:normal;font-weight:normal;font-size:9.96259975px;font-family:CMR10;-inkscape-font-specification:CMR10;writing-mode:lr-tb;fill:#000000;fill-opacity:1;fill-rule:nonzero;stroke:none"
                     transform="matrix(1,0,0,-1,198.356,52.711)"><tspan
                       id="tspan6992"
                       y="0"
                       x="0">6</tspan></text>
<g
                     transform="translate(198.356,52.711)"
                     id="g6994" /></g></g><g
                 transform="translate(-189.449,-24.002)"
                 id="g6996" /></g></g><g
             id="g6998"><path
               id="path7000"
               style="fill:none;stroke:#000000;stroke-width:0.59776002;stroke-linecap:butt;stroke-linejoin:miter;stroke-miterlimit:10;stroke-dasharray:none;stroke-opacity:1"
               d="M 7.33144,32.29425 28.0361,46.63913" /><g
               transform="matrix(0.82307,0.5703,-0.5703,0.82307,25.87164,45.1394)"
               id="g7002"><g
                 id="g7004"><path
                   id="path7006"
                   style="fill:#000000;fill-opacity:1;fill-rule:nonzero;stroke:#000000;stroke-width:0.59776002;stroke-linecap:butt;stroke-linejoin:miter;stroke-miterlimit:10;stroke-dasharray:none;stroke-opacity:1"
                   d="M 6.6014,0 0.90826,2.36853 2.77914,0 0.90826,-2.36853 6.6014,0 Z" /></g></g></g><g
             id="g7008"><path
               id="path7010"
               style="fill:none;stroke:#000000;stroke-width:0.59776002;stroke-linecap:butt;stroke-linejoin:miter;stroke-miterlimit:10;stroke-dasharray:none;stroke-opacity:1"
               d="M 7.33144,22.1352 28.0361,7.79019" /><g
               transform="matrix(0.82307,-0.5703,0.5703,0.82307,25.87164,9.2899)"
               id="g7012"><g
                 id="g7014"><path
                   id="path7016"
                   style="fill:#000000;fill-opacity:1;fill-rule:nonzero;stroke:#000000;stroke-width:0.59776002;stroke-linecap:butt;stroke-linejoin:miter;stroke-miterlimit:10;stroke-dasharray:none;stroke-opacity:1"
                   d="M 6.6014,0 0.90826,2.36853 2.77914,0 0.90826,-2.36853 6.6014,0 Z" /></g></g></g><g
             id="g7018"><path
               id="path7020"
               style="fill:none;stroke:#000000;stroke-width:0.59776002;stroke-linecap:butt;stroke-linejoin:miter;stroke-miterlimit:10;stroke-dasharray:none;stroke-opacity:1"
               d="m 48.18683,54.42891 68.14732,0" /><g
               transform="translate(113.70444,54.42891)"
               id="g7022"><g
                 id="g7024"><path
                   id="path7026"
                   style="fill:#000000;fill-opacity:1;fill-rule:nonzero;stroke:#000000;stroke-width:0.59776002;stroke-linecap:butt;stroke-linejoin:miter;stroke-miterlimit:10;stroke-dasharray:none;stroke-opacity:1"
                   d="M 6.6014,0 0.90826,2.36853 2.77914,0 0.90826,-2.36853 6.6014,0 Z" /></g></g></g><g
             id="g7028"><path
               id="path7030"
               style="fill:none;stroke:#000000;stroke-width:0.59776002;stroke-linecap:butt;stroke-linejoin:miter;stroke-miterlimit:10;stroke-dasharray:none;stroke-opacity:1"
               d="M 46.95108,49.82613 118.26286,7.039" /><g
               transform="matrix(0.86127,-0.51674,0.51674,0.86127,115.99797,8.39787)"
               id="g7032"><g
                 id="g7034"><path
                   id="path7036"
                   style="fill:#000000;fill-opacity:1;fill-rule:nonzero;stroke:#000000;stroke-width:0.59776002;stroke-linecap:butt;stroke-linejoin:miter;stroke-miterlimit:10;stroke-dasharray:none;stroke-opacity:1"
                   d="M 6.6014,0 0.90826,2.36853 2.77914,0 0.90826,-2.36853 6.6014,0 Z" /></g></g></g><g
             id="g7038"><path
               id="path7040"
               style="fill:none;stroke:#000000;stroke-width:0.59776002;stroke-linecap:butt;stroke-linejoin:miter;stroke-miterlimit:10;stroke-dasharray:none;stroke-opacity:1"
               d="M 39.27966,45.52138 39.27953,13.66014" /><g
               transform="matrix(0,-1,1,0,39.27953,16.28986)"
               id="g7042"><g
                 id="g7044"><path
                   id="path7046"
                   style="fill:#000000;fill-opacity:1;fill-rule:nonzero;stroke:#000000;stroke-width:0.59776002;stroke-linecap:butt;stroke-linejoin:miter;stroke-miterlimit:10;stroke-dasharray:none;stroke-opacity:1"
                   d="M 6.6014,0 0.90826,2.36853 2.77914,0 0.90826,-2.36853 6.6014,0 Z" /></g></g></g><g
             id="g7048"><path
               id="path7050"
               style="fill:none;stroke:#000000;stroke-width:0.59776002;stroke-linecap:butt;stroke-linejoin:miter;stroke-miterlimit:10;stroke-dasharray:none;stroke-opacity:1"
               d="m 48.18683,0 68.14732,0" /><g
               transform="translate(113.70444,0)"
               id="g7052"><g
                 id="g7054"><path
                   id="path7056"
                   style="fill:#000000;fill-opacity:1;fill-rule:nonzero;stroke:#000000;stroke-width:0.59776002;stroke-linecap:butt;stroke-linejoin:miter;stroke-miterlimit:10;stroke-dasharray:none;stroke-opacity:1"
                   d="M 6.6014,0 0.90826,2.36853 2.77914,0 0.90826,-2.36853 6.6014,0 Z" /></g></g></g><g
             id="g7058"><path
               id="path7060"
               style="fill:none;stroke:#000000;stroke-width:0.59776002;stroke-linecap:butt;stroke-linejoin:miter;stroke-miterlimit:10;stroke-dasharray:none;stroke-opacity:1"
               d="m 129.99568,45.52138 -4.3e-4,-31.86124" /><g
               transform="matrix(0,-1,1,0,129.99525,16.28986)"
               id="g7062"><g
                 id="g7064"><path
                   id="path7066"
                   style="fill:#000000;fill-opacity:1;fill-rule:nonzero;stroke:#000000;stroke-width:0.59776002;stroke-linecap:butt;stroke-linejoin:miter;stroke-miterlimit:10;stroke-dasharray:none;stroke-opacity:1"
                   d="M 6.6014,0 0.90826,2.36853 2.77914,0 0.90826,-2.36853 6.6014,0 Z" /></g></g></g><g
             id="g7068"><path
               id="path7070"
               style="fill:none;stroke:#000000;stroke-width:0.59776002;stroke-linecap:butt;stroke-linejoin:miter;stroke-miterlimit:10;stroke-dasharray:none;stroke-opacity:1"
               d="M 138.17729,50.8353 179.40364,32.72733" /><g
               transform="matrix(0.91867,-0.40352,0.40352,0.91867,176.98781,33.78845)"
               id="g7072"><g
                 id="g7074"><path
                   id="path7076"
                   style="fill:#000000;fill-opacity:1;fill-rule:nonzero;stroke:#000000;stroke-width:0.59776002;stroke-linecap:butt;stroke-linejoin:miter;stroke-miterlimit:10;stroke-dasharray:none;stroke-opacity:1"
                   d="M 6.6014,0 0.90826,2.36853 2.77914,0 0.90826,-2.36853 6.6014,0 Z" /></g></g></g><g
             id="g7078"><path
               id="path7080"
               style="fill:none;stroke:#000000;stroke-width:0.59776002;stroke-linecap:butt;stroke-linejoin:miter;stroke-miterlimit:10;stroke-dasharray:none;stroke-opacity:1"
               d="m 138.17729,3.594 41.22635,18.10784" /><g
               transform="matrix(0.91867,0.40352,-0.40352,0.91867,176.98781,20.64072)"
               id="g7082"><g
                 id="g7084"><path
                   id="path7086"
                   style="fill:#000000;fill-opacity:1;fill-rule:nonzero;stroke:#000000;stroke-width:0.59776002;stroke-linecap:butt;stroke-linejoin:miter;stroke-miterlimit:10;stroke-dasharray:none;stroke-opacity:1"
                   d="M 6.6014,0 0.90826,2.36853 2.77914,0 0.90826,-2.36853 6.6014,0 Z" /></g></g></g><g
             id="g7088"><path
               id="path7090"
               style="fill:none;stroke:#000000;stroke-width:0.59776002;stroke-linecap:butt;stroke-linejoin:miter;stroke-miterlimit:10;stroke-dasharray:none;stroke-opacity:1"
               d="m 138.0558,-3.80414 21.53147,-10.16301" /><g
               transform="matrix(0.90503,-0.4272,0.4272,0.90503,157.2073,-12.84372)"
               id="g7092"><g
                 id="g7094"><path
                   id="path7096"
                   style="fill:#000000;fill-opacity:1;fill-rule:nonzero;stroke:#000000;stroke-width:0.59776002;stroke-linecap:butt;stroke-linejoin:miter;stroke-miterlimit:10;stroke-dasharray:none;stroke-opacity:1"
                   d="M 6.6014,0 0.90826,2.36853 2.77914,0 0.90826,-2.36853 6.6014,0 Z" /></g></g></g><g
             id="g7098"><path
               id="path7100"
               style="fill:none;stroke:#000000;stroke-width:0.59776002;stroke-linecap:butt;stroke-linejoin:miter;stroke-miterlimit:10;stroke-dasharray:none;stroke-opacity:1"
               d="m 175.44627,-11.59056 11.15046,26.21054" /><g
               transform="matrix(0.3922,0.92198,-0.92198,0.3922,185.56535,12.19543)"
               id="g7102"><g
                 id="g7104"><path
                   id="path7106"
                   style="fill:#000000;fill-opacity:1;fill-rule:nonzero;stroke:#000000;stroke-width:0.59776002;stroke-linecap:butt;stroke-linejoin:miter;stroke-miterlimit:10;stroke-dasharray:none;stroke-opacity:1"
                   d="M 6.6014,0 0.90826,2.36853 2.77914,0 0.90826,-2.36853 6.6014,0 Z" /></g></g></g></g></g><g
         transform="translate(230.795,0)"
         id="g7108"><g
           id="g7110"><g
             id="g7112"><g
               id="g7114"><path
                 id="path7116"
                 style="fill:none;stroke:#000000;stroke-width:0.3985;stroke-linecap:butt;stroke-linejoin:miter;stroke-miterlimit:10;stroke-dasharray:none;stroke-opacity:1"
                 d="m 8.70769,27.21297 c 0,4.80917 -3.89852,8.70768 -8.70769,8.70768 -4.80917,0 -8.70769,-3.89851 -8.70769,-8.70768 0,-4.80917 3.89852,-8.70771 8.70769,-8.70771 4.80917,0 8.70769,3.89854 8.70769,8.70771 z" /><g
                 transform="translate(-2.49,24.002)"
                 id="g7118"><g
                   id="g7120"><g
                     transform="translate(-237.212,-52.711)"
                     id="g7122"><text
                       id="text7124"
                       style="font-variant:normal;font-weight:normal;font-size:9.96259975px;font-family:CMR10;-inkscape-font-specification:CMR10;writing-mode:lr-tb;fill:#000000;fill-opacity:1;fill-rule:nonzero;stroke:none"
                       transform="matrix(1,0,0,-1,237.212,52.711)"><tspan
                         id="tspan7126"
                         y="0"
                         x="0">0</tspan></text>
<g
                       transform="translate(237.212,52.711)"
                       id="g7128" /></g></g><g
                   transform="translate(2.49,-24.002)"
                   id="g7130" /></g></g><g
               id="g7132"><path
                 id="path7134"
                 style="fill:none;stroke:#000000;stroke-width:0.3985;stroke-linecap:butt;stroke-linejoin:miter;stroke-miterlimit:10;stroke-dasharray:none;stroke-opacity:1"
                 d="m 47.98505,54.42593 c 0,4.80917 -3.89852,8.70769 -8.70769,8.70769 -4.80917,0 -8.70769,-3.89852 -8.70769,-8.70769 0,-4.80917 3.89852,-8.70768 8.70769,-8.70768 4.80917,0 8.70769,3.89851 8.70769,8.70768 z" /><g
                 transform="translate(36.786,51.215)"
                 id="g7136"><g
                   id="g7138"><g
                     transform="translate(-276.488,-79.924)"
                     id="g7140"><text
                       id="text7142"
                       style="font-variant:normal;font-weight:normal;font-size:9.96259975px;font-family:CMR10;-inkscape-font-specification:CMR10;writing-mode:lr-tb;fill:#000000;fill-opacity:1;fill-rule:nonzero;stroke:none"
                       transform="matrix(1,0,0,-1,276.488,79.924)"><tspan
                         id="tspan7144"
                         y="0"
                         x="0">1</tspan></text>
<g
                       transform="translate(276.488,79.924)"
                       id="g7146" /></g></g><g
                   transform="translate(-36.786,-51.215)"
                   id="g7148" /></g></g><g
               id="g7150"><path
                 id="path7152"
                 style="fill:none;stroke:#000000;stroke-width:0.3985;stroke-linecap:butt;stroke-linejoin:miter;stroke-miterlimit:10;stroke-dasharray:none;stroke-opacity:1"
                 d="m 47.98505,0 c 0,4.80917 -3.89852,8.70769 -8.70769,8.70769 -4.80917,0 -8.70769,-3.89852 -8.70769,-8.70769 0,-4.80917 3.89852,-8.70769 8.70769,-8.70769 4.80917,0 8.70769,3.89852 8.70769,8.70769 z" /><g
                 transform="translate(36.786,-3.211)"
                 id="g7154"><g
                   id="g7156"><g
                     transform="translate(-276.488,-25.498)"
                     id="g7158"><text
                       id="text7160"
                       style="font-variant:normal;font-weight:normal;font-size:9.96259975px;font-family:CMR10;-inkscape-font-specification:CMR10;writing-mode:lr-tb;fill:#000000;fill-opacity:1;fill-rule:nonzero;stroke:none"
                       transform="matrix(1,0,0,-1,276.488,25.498)"><tspan
                         id="tspan7162"
                         y="0"
                         x="0">2</tspan></text>
<g
                       transform="translate(276.488,25.498)"
                       id="g7164" /></g></g><g
                   transform="translate(-36.786,3.211)"
                   id="g7166" /></g></g><g
               id="g7168"><path
                 id="path7170"
                 style="fill:none;stroke:#000000;stroke-width:0.3985;stroke-linecap:butt;stroke-linejoin:miter;stroke-miterlimit:10;stroke-dasharray:none;stroke-opacity:1"
                 d="m 138.69518,54.42593 c 0,4.80917 -3.89852,8.70769 -8.70769,8.70769 -4.80918,0 -8.70769,-3.89852 -8.70769,-8.70769 0,-4.80917 3.89851,-8.70768 8.70769,-8.70768 4.80917,0 8.70769,3.89851 8.70769,8.70768 z" /><g
                 transform="translate(127.495,51.215)"
                 id="g7172"><g
                   id="g7174"><g
                     transform="translate(-367.197,-79.924)"
                     id="g7176"><text
                       id="text7178"
                       style="font-variant:normal;font-weight:normal;font-size:9.96259975px;font-family:CMR10;-inkscape-font-specification:CMR10;writing-mode:lr-tb;fill:#000000;fill-opacity:1;fill-rule:nonzero;stroke:none"
                       transform="matrix(1,0,0,-1,367.197,79.924)"><tspan
                         id="tspan7180"
                         y="0"
                         x="0">3</tspan></text>
<g
                       transform="translate(367.197,79.924)"
                       id="g7182" /></g></g><g
                   transform="translate(-127.495,-51.215)"
                   id="g7184" /></g></g><g
               id="g7186"><path
                 id="path7188"
                 style="fill:none;stroke:#000000;stroke-width:0.3985;stroke-linecap:butt;stroke-linejoin:miter;stroke-miterlimit:10;stroke-dasharray:none;stroke-opacity:1"
                 d="m 138.69518,0 c 0,4.80917 -3.89852,8.70769 -8.70769,8.70769 -4.80918,0 -8.70769,-3.89852 -8.70769,-8.70769 0,-4.80917 3.89851,-8.70769 8.70769,-8.70769 4.80917,0 8.70769,3.89852 8.70769,8.70769 z" /><g
                 transform="translate(127.495,-3.211)"
                 id="g7190"><g
                   id="g7192"><g
                     transform="translate(-367.197,-25.498)"
                     id="g7194"><text
                       id="text7196"
                       style="font-variant:normal;font-weight:normal;font-size:9.96259975px;font-family:CMR10;-inkscape-font-specification:CMR10;writing-mode:lr-tb;fill:#000000;fill-opacity:1;fill-rule:nonzero;stroke:none"
                       transform="matrix(1,0,0,-1,367.197,25.498)"><tspan
                         id="tspan7198"
                         y="0"
                         x="0">4</tspan></text>
<g
                       transform="translate(367.197,25.498)"
                       id="g7200" /></g></g><g
                   transform="translate(-127.495,3.211)"
                   id="g7202" /></g></g><g
               id="g7204"><path
                 id="path7206"
                 style="fill:none;stroke:#000000;stroke-width:0.3985;stroke-linecap:butt;stroke-linejoin:miter;stroke-miterlimit:10;stroke-dasharray:none;stroke-opacity:1"
                 d="m 180.64874,-19.80199 c 0,4.80918 -3.89851,8.70771 -8.70768,8.70771 -4.80918,0 -8.70769,-3.89853 -8.70769,-8.70771 0,-4.80917 3.89851,-8.70768 8.70769,-8.70768 4.80917,0 8.70768,3.89851 8.70768,8.70768 z" /><g
                 transform="translate(169.448,-23.012)"
                 id="g7208"><g
                   id="g7210"><g
                     transform="translate(-409.15,-5.697)"
                     id="g7212"><text
                       id="text7214"
                       style="font-variant:normal;font-weight:normal;font-size:9.96259975px;font-family:CMR10;-inkscape-font-specification:CMR10;writing-mode:lr-tb;fill:#000000;fill-opacity:1;fill-rule:nonzero;stroke:none"
                       transform="matrix(1,0,0,-1,409.15,5.697)"><tspan
                         id="tspan7216"
                         y="0"
                         x="0">5</tspan></text>
<g
                       transform="translate(409.15,5.697)"
                       id="g7218" /></g></g><g
                   transform="translate(-169.448,23.012)"
                   id="g7220" /></g></g><g
               id="g7222"><path
                 id="path7224"
                 style="fill:none;stroke:#000000;stroke-width:0.3985;stroke-linecap:butt;stroke-linejoin:miter;stroke-miterlimit:10;stroke-dasharray:none;stroke-opacity:1"
                 d="m 200.65042,27.21297 c 0,4.80917 -3.89852,8.70768 -8.7077,8.70768 -4.80918,0 -8.70769,-3.89851 -8.70769,-8.70768 0,-4.80917 3.89851,-8.70771 8.70769,-8.70771 4.80918,0 8.7077,3.89854 8.7077,8.70771 z" /><g
                 transform="translate(189.45,24.002)"
                 id="g7226"><g
                   id="g7228"><g
                     transform="translate(-429.152,-52.711)"
                     id="g7230"><text
                       id="text7232"
                       style="font-variant:normal;font-weight:normal;font-size:9.96259975px;font-family:CMR10;-inkscape-font-specification:CMR10;writing-mode:lr-tb;fill:#000000;fill-opacity:1;fill-rule:nonzero;stroke:none"
                       transform="matrix(1,0,0,-1,429.152,52.711)"><tspan
                         id="tspan7234"
                         y="0"
                         x="0">6</tspan></text>
<g
                       transform="translate(429.152,52.711)"
                       id="g7236" /></g></g><g
                   transform="translate(-189.45,-24.002)"
                   id="g7238" /></g></g></g></g></g></g></g></svg>